<svg width="197" height="195" viewBox="0 0 197 195" fill="none" xmlns="http://www.w3.org/2000/svg">
<path d="M39.794 21.6442C35.5375 22.4092 31.6873 24.6291 28.9151 27.9167C26.1429 31.2042 24.6246 35.3507 24.625 39.6329V173.086C24.625 178.509 26.9767 183.299 30.6581 186.614C35.1768 191.757 41.8379 194.999 49.25 194.999H147.75C154.281 194.999 160.544 192.431 165.162 187.86C169.781 183.289 172.375 177.089 172.375 170.624V48.7492C172.375 44.4706 171.237 40.2674 169.076 36.562C166.914 32.8567 163.806 29.7797 160.062 27.6404V21.9123C160.065 19.2338 159.472 16.5875 158.327 14.1607C157.181 11.734 155.511 9.58598 153.434 7.86871C151.358 6.15145 148.925 4.90687 146.309 4.22303C143.693 3.53918 140.956 3.43278 138.294 3.91134L39.794 21.632V21.6442ZM49.25 36.5617H147.75C151.015 36.5617 154.147 37.8457 156.456 40.1313C158.765 42.4169 160.062 45.5168 160.062 48.7492V170.624C160.062 173.856 158.765 176.956 156.456 179.242C154.147 181.528 151.015 182.812 147.75 182.812H49.25C45.9845 182.812 42.8528 181.528 40.5437 179.242C38.2347 176.956 36.9375 173.856 36.9375 170.624V48.7492C36.9375 45.5168 38.2347 42.4169 40.5437 40.1313C42.8528 37.8457 45.9845 36.5617 49.25 36.5617Z" fill="#E3A213"/>
<path d="M131.496 81.1075L121.47 83.351L73.0591 94.1786C73.2168 93.0158 73.448 91.8637 73.7514 90.7296C74.9696 86.2067 77.3174 82.0723 80.5625 78.7359C83.8075 75.3996 87.8371 72.977 92.2522 71.7083C96.6672 70.4395 101.315 70.3685 105.734 71.5024C110.153 72.6362 114.191 74.9356 117.447 78.1726L123.185 76.8884L124.042 76.6962C120.352 72.025 115.458 68.5056 109.9 66.5271C104.343 64.5485 98.3388 64.1878 92.5514 65.4849C86.7641 66.7819 81.419 69.6861 77.1067 73.8766C72.7945 78.0671 69.6831 83.3806 68.1164 89.2299C67.8999 90.0377 67.7142 90.8504 67.5592 91.6679C67.3387 92.8254 66.7894 93.8947 65.9803 94.7415C65.1713 95.5882 64.1386 96.1745 63.0123 96.4266L59.986 97.1049L58.2495 103.586L67.1589 101.59L70.0446 100.942L72.8873 100.307L123.925 88.8842L129.66 87.6023L141.514 84.9479L143.25 78.4703L131.496 81.1075Z" fill="#E3A213"/>
<path d="M139.778 91.4271L74.0556 106.116L68.3193 107.404L56.518 110.046L54.7832 116.52L66.5033 113.898L76.5289 111.654L124.992 100.806C124.832 101.977 124.599 103.136 124.294 104.278C123.077 108.807 120.728 112.947 117.48 116.287C114.231 119.628 110.196 122.053 105.776 123.321C101.355 124.589 96.702 124.656 92.279 123.516C87.856 122.376 83.8167 120.068 80.562 116.822L80.208 116.907L73.9866 118.3C77.6755 122.971 82.5684 126.49 88.1245 128.47C93.6807 130.449 99.6838 130.811 105.471 129.516C111.257 128.221 116.603 125.319 120.916 121.13C125.229 116.942 128.342 111.631 129.911 105.783C130.129 104.968 130.317 104.144 130.474 103.323C130.694 102.166 131.243 101.096 132.052 100.25C132.86 99.4029 133.892 98.8161 135.018 98.563L138.047 97.8856L139.778 91.4271Z" fill="#E3A213"/>
<line x1="63" y1="155" x2="136" y2="155" stroke="#E3A213" stroke-width="8" stroke-linecap="round"/>
</svg>
